<svg xmlns="http://www.w3.org/2000/svg" width="460" height="415" viewBox="0 0 460 415" version="1.1"><path d="M 266.805 183.388 C 228.511 218.110, 183.427 245.158, 139 260.065 C 116.875 267.489, 102.343 269.003, 94.020 264.750 C 87.940 261.643, 85.714 258.231, 85.224 251.263 C 84.698 243.809, 87.034 233.946, 91.946 222.881 C 95.705 214.412, 96.258 210, 93.559 210 C 91.819 210, 82.563 225.956, 78.812 235.422 C 76.029 242.447, 75.604 244.739, 75.556 253 C 75.505 261.662, 75.748 262.921, 78.305 267.272 C 86.804 281.731, 106.855 283.673, 141.368 273.381 C 181.477 261.420, 229.289 235.182, 260.096 208.227 C 273.330 196.648, 285 184.548, 285 182.406 C 285 181.268, 280.874 177.631, 277.305 175.623 C 276.603 175.228, 272.276 178.428, 266.805 183.388" stroke="none" fill="#22f1f6" fill-rule="evenodd"/><path d="M 217.500 32.090 C 190.922 34.054, 164.178 43.403, 141 58.832 C 100.928 85.507, 75.103 127.689, 69.954 174.876 C 67.897 193.727, 70.352 226.639, 73.903 227.807 C 75.015 228.173, 75.170 227.463, 74.654 224.384 C 71.216 203.897, 71.340 177.756, 74.953 160.801 C 81.504 130.065, 95.702 104.137, 118.419 81.421 C 139.208 60.634, 158.931 48.879, 186.500 40.842 C 218.938 31.386, 250.612 32.322, 283.424 43.707 C 335.466 61.764, 375.807 108.487, 386.514 163.107 C 388.749 174.509, 389.558 199.138, 388.104 211.535 C 382.528 259.091, 355.062 301.882, 313.543 327.700 C 298.381 337.128, 281.001 344.001, 261.700 348.203 C 252.974 350.103, 248.466 350.423, 230.500 350.423 C 212.564 350.423, 208.020 350.101, 199.352 348.214 C 176.277 343.189, 152.990 332.652, 134.841 319.025 C 124.531 311.284, 109.841 296.850, 105 289.704 C 103.625 287.674, 101.685 286.011, 100.688 286.007 C 99.150 286.001, 99.377 286.720, 102.188 290.750 C 106.792 297.353, 126.216 316.593, 133.746 322.008 C 157.508 339.098, 183.729 349.581, 211.366 353.041 C 224.882 354.733, 249.488 353.751, 262.500 350.999 C 308.715 341.228, 347.616 313.106, 370.749 272.746 C 387.664 243.234, 394.716 209.566, 391.131 175.439 C 385.713 123.869, 352.713 75.176, 306.799 51.005 C 278.060 35.875, 249.151 29.752, 217.500 32.090 M 212.521 64.048 C 161.757 72.007, 120.773 106.842, 105.576 154.948 C 97.484 180.566, 98.006 210.186, 107.028 237.211 C 110.554 247.773, 116.567 259.988, 118.263 260.032 C 120.477 260.090, 148 250.617, 148 249.797 C 148 249.358, 143.508 249, 138.017 249 L 128.034 249 125.646 244.250 C 120.189 233.394, 115.050 214.779, 115.017 205.750 L 115 201 134.342 201 L 153.685 201 153.866 207.750 C 154.157 218.548, 157.761 242.187, 159.561 245.099 C 160.146 246.046, 172.003 240.454, 171.995 239.236 C 171.993 238.831, 171.095 232.425, 170 225 C 168.905 217.575, 168.007 209.137, 168.005 206.250 L 168 201 195.500 201 L 223 201 223 205 C 223 207.426, 223.468 209, 224.190 209 C 225.931 209, 252 188.930, 252 187.590 C 252 187.265, 248.707 187, 244.683 187 L 237.366 187 237.561 182.750 C 237.668 180.412, 237.811 169.346, 237.878 158.158 L 238 137.815 258.416 138.158 C 269.645 138.346, 279.139 138.194, 279.513 137.820 C 279.888 137.446, 278.463 136.252, 276.347 135.167 C 271.014 132.432, 267.834 128.877, 269.031 126.985 C 269.547 126.168, 269.976 125.162, 269.985 124.750 C 269.993 124.338, 262.575 124, 253.500 124 L 237 124 237 100.933 L 237 77.865 239.250 78.563 C 253.148 82.873, 268.071 97.411, 275.421 113.800 C 276.477 116.156, 277.868 117.881, 278.512 117.634 C 279.157 117.386, 282.676 117.746, 286.333 118.434 C 289.991 119.121, 293.181 119.486, 293.422 119.245 C 294.349 118.317, 286.627 103.104, 280.994 94.759 L 275.094 86.018 281.278 89.140 C 292.046 94.576, 301.233 101.223, 310.099 109.994 C 314.828 114.672, 319.603 119.814, 320.710 121.420 L 322.723 124.339 327.840 119.553 L 332.957 114.767 329.751 110.303 C 321.716 99.114, 303.210 84.065, 288.259 76.562 C 269.861 67.328, 256.104 63.981, 234.500 63.481 C 225.700 63.277, 215.809 63.532, 212.521 64.048 M 216.736 80.445 C 209.729 83.294, 206.996 85.041, 201.218 90.366 C 195.173 95.939, 188.969 104.847, 184.047 115.025 L 179.947 123.500 201.120 123.770 C 212.765 123.919, 222.460 123.873, 222.666 123.668 C 222.871 123.463, 222.917 113.126, 222.769 100.698 L 222.500 78.102 216.736 80.445 M 177 90.111 C 172.875 92.356, 166.575 96.259, 163 98.783 C 156.402 103.443, 138 121.303, 138 123.047 C 138 123.604, 143.567 124, 151.384 124 L 164.768 124 167.051 118.250 C 170.793 108.829, 175.962 98.899, 180.586 92.250 C 182.977 88.813, 184.836 86.006, 184.717 86.014 C 184.597 86.022, 181.125 87.865, 177 90.111 M 336.183 119.250 C 334.471 120.487, 330.580 123.691, 327.538 126.369 L 322.005 131.238 300.885 126.545 L 279.765 121.851 276.837 124.656 C 273.174 128.166, 272.661 127.735, 292.250 137.591 C 300.363 141.673, 307 145.358, 307 145.781 C 307 146.204, 303.684 149.843, 299.632 153.869 L 292.264 161.187 285.634 160.477 C 278.595 159.724, 274 161.317, 274 164.512 C 274 165.340, 277.412 167.693, 281.840 169.919 C 289.392 173.717, 289.815 174.118, 293.374 180.893 C 295.407 184.761, 297.532 188.211, 298.098 188.560 C 298.663 188.910, 300.049 188.364, 301.176 187.348 C 303.037 185.671, 303.167 184.757, 302.580 177.481 L 301.933 169.462 306.717 165.807 C 309.347 163.796, 312.822 160.767, 314.437 159.076 C 316.052 157.384, 317.853 156, 318.439 156 C 319.024 156, 320.628 158.125, 322.002 160.721 C 324.260 164.990, 336.569 184.863, 337.625 185.947 C 337.865 186.193, 339.234 185.221, 340.668 183.786 L 343.276 181.179 338.629 161.839 C 336.073 151.203, 333.986 142.152, 333.991 141.728 C 333.996 141.303, 335.744 139.053, 337.877 136.728 C 346.156 127.698, 348.895 121.295, 345.800 118.200 C 343.917 116.317, 339.587 116.789, 336.183 119.250 M 342.279 139.344 L 339.058 143.621 342.589 157.560 C 344.531 165.227, 346.382 174.526, 346.703 178.224 C 347.337 185.543, 346.642 186.774, 339.737 190.553 C 337.128 191.981, 336.833 191.924, 334.442 189.532 C 332.004 187.095, 331.444 187, 319.522 187 C 307.875 187, 307.096 187.124, 306.478 189.069 C 305.745 191.380, 300.437 194.991, 297.764 194.996 C 296.809 194.998, 294.821 193.176, 293.346 190.946 L 290.663 186.892 284.331 193.167 C 280.849 196.618, 278 199.793, 278 200.221 C 278 200.650, 281.375 201, 285.500 201 L 293 201 292.992 205.250 C 292.974 214.716, 289.725 236.150, 286.778 246.250 L 285.683 250 261.342 250 L 237 250 237 241.917 C 237 237.471, 236.623 233.983, 236.161 234.167 C 235.700 234.350, 232.554 236.300, 229.170 238.500 C 223.443 242.223, 223.017 242.760, 223.009 246.250 L 223 250 217.250 249.983 C 212.194 249.968, 209.969 250.722, 198.812 256.233 C 191.834 259.680, 186.097 262.837, 186.062 263.250 C 186.028 263.663, 194.325 264, 204.500 264 L 223 264 223 286.567 L 223 309.135 220.750 308.471 C 212.892 306.153, 207.226 302.476, 199.592 294.743 C 193 288.066, 190.432 284.505, 186.075 276 C 183.116 270.225, 180.615 265.388, 180.516 265.252 C 180.418 265.116, 177.555 266.204, 174.155 267.672 C 168.820 269.974, 168.061 270.624, 168.617 272.420 C 169.766 276.132, 175.151 286.337, 179.608 293.250 C 182.001 296.962, 183.729 300, 183.447 300 C 180.474 300, 163.181 289.010, 154.642 281.694 L 148.785 276.676 141.892 278.895 C 138.102 280.116, 135 281.493, 135 281.954 C 135 282.415, 138.519 286.101, 142.821 290.146 C 160.819 307.071, 183.175 318.230, 207.622 322.493 C 218.734 324.431, 242.162 324.451, 253.119 322.532 C 298.869 314.520, 339.218 279.914, 354.009 236 C 357.071 226.910, 359.763 212.289, 360.545 200.500 C 361.701 183.098, 357.505 159.548, 350.159 142.204 C 348.627 138.585, 346.951 135.499, 346.436 135.345 C 345.921 135.192, 344.050 136.991, 342.279 139.344 M 124.704 145.750 C 120.702 154.337, 116.526 167.925, 115.548 175.544 C 115.198 178.270, 114.686 181.963, 114.411 183.750 L 113.909 187 133.409 187 L 152.909 187 153.403 183.750 C 153.674 181.963, 154.151 176.225, 154.462 171 C 154.952 162.794, 157.053 150.181, 159.503 140.750 L 160.217 138 144.266 138 L 128.315 138 124.704 145.750 M 174.106 141.750 C 173.572 143.813, 172.627 147.448, 172.007 149.830 C 170.385 156.059, 168.042 174.520, 168.020 181.250 L 168 187 195.500 187 L 223 187 223 162.500 L 223 138 199.039 138 L 175.077 138 174.106 141.750 M 288 142.462 C 288 145.213, 290.167 153.985, 290.969 154.481 C 291.413 154.755, 293.368 153.037, 295.314 150.662 L 298.852 146.344 293.426 143.683 C 289.269 141.644, 288 141.358, 288 142.462 M 307 206.449 C 307 213.795, 304.429 232.728, 302.139 242.250 L 300.275 250 316.023 250 C 331.444 250, 331.802 249.951, 333.308 247.653 C 338.001 240.491, 344.187 220.269, 345.516 207.750 L 346.233 201 326.616 201 L 307 201 307 206.449 M 238 286.567 L 238 309.135 240.250 308.486 C 247.080 306.516, 254.124 301.882, 261.508 294.503 C 268.140 287.875, 270.514 284.566, 275.321 275.250 L 281.126 264 259.563 264 L 238 264 238 286.567 M 294.225 268.250 C 291.563 275.255, 283.216 290.938, 279.333 296.227 L 275.700 301.176 283.100 297.471 C 287.170 295.434, 293.425 291.710, 297 289.197 C 303.862 284.372, 317.839 271.390, 321.165 266.750 L 323.136 264 309.488 264 L 295.839 264 294.225 268.250" stroke="none" fill="#1a5a93" fill-rule="evenodd"/></svg>