<svg xmlns="http://www.w3.org/2000/svg" width="2870" height="1500" viewBox="0 0 2870 1500" version="1.1"><path d="M 232.504 557.556 C 213.411 559.905, 194.937 564.853, 180.590 571.462 C 176.690 573.259, 170.859 575.952, 167.630 577.448 C 145.613 587.651, 117.838 610.876, 100.188 633.843 C 79.482 660.787, 65.038 698.623, 62.334 733 C 60.108 761.308, 63.561 785.478, 74.154 815.732 C 78.824 829.071, 84.780 842.391, 87.598 845.800 L 89.500 848.100 109.709 841.521 C 120.823 837.903, 130.187 834.506, 130.518 833.971 C 130.894 833.362, 126.272 833, 118.110 833 L 105.102 833 102.713 829.750 C 94.956 819.194, 84.679 784.612, 83.769 766 L 83.500 760.500 111.934 760.234 C 127.573 760.088, 140.710 760.313, 141.127 760.734 C 141.545 761.155, 142.170 765.550, 142.516 770.500 C 143.890 790.153, 148.973 821.930, 151.183 824.682 C 151.887 825.559, 154.243 824.840, 160.316 821.892 C 169.474 817.447, 169.077 818.349, 167.087 806.500 C 163.898 787.510, 161.441 763.900, 162.394 761.415 C 162.864 760.191, 169.081 760.017, 204.223 760.239 L 245.500 760.500 245.785 764.500 C 246.204 770.375, 246.663 771.252, 248.735 770.135 C 253.675 767.472, 286.239 742.475, 286.833 740.890 C 287.017 740.400, 282.656 740, 277.142 740 C 270.267 740, 266.878 739.612, 266.355 738.765 C 265.548 737.459, 265.822 669.096, 266.640 667.773 C 266.903 667.348, 280.565 667, 297 667 C 314.622 667, 327.121 666.613, 327.464 666.058 C 327.785 665.539, 324.894 663.274, 321.040 661.023 C 313.302 656.504, 311.854 654.664, 312.240 649.834 L 312.500 646.574 289.791 646.495 C 277.301 646.451, 266.849 646.183, 266.565 645.898 C 265.809 645.142, 265.731 580.245, 266.484 579.025 C 267.848 576.819, 277.797 580.899, 288.500 588.052 C 301.178 596.526, 313.737 611.424, 322.039 627.839 L 326.004 635.679 334.752 636.970 C 339.563 637.681, 344.586 638.670, 345.913 639.168 C 347.447 639.744, 348.698 639.702, 349.349 639.051 C 351.548 636.852, 332.967 603.900, 323.650 593.473 C 318.594 587.815, 321.016 587.975, 332.637 594.069 C 355.102 605.849, 374.539 621.728, 390.069 640.990 L 393.637 645.417 400.819 639.509 C 404.768 636.260, 407.984 633.353, 407.965 633.051 C 407.766 629.972, 391.611 611.985, 379.497 601.355 C 359.775 584.049, 329.485 568.421, 303 561.886 C 280.469 556.327, 255.141 554.772, 232.504 557.556 M 238 579.597 C 223.971 584.277, 210.602 594.980, 198.774 611 C 188.799 624.510, 178.611 644.523, 180.967 645.979 C 182.280 646.791, 243.721 646.612, 244.539 645.794 C 245.022 645.311, 245.487 592.617, 245.108 581.250 C 244.986 577.580, 244.432 577.451, 238 579.597 M 177.639 595.039 C 163.565 602.225, 139.646 619.425, 132 627.858 C 131.175 628.768, 127.688 632.612, 124.250 636.401 C 114.415 647.241, 114.253 647.120, 138 646.693 C 149 646.495, 158.180 646.146, 158.400 645.917 C 158.621 645.688, 160.261 641.675, 162.046 637 C 166.551 625.203, 176.237 606.785, 182.094 598.878 C 189.134 589.374, 188.986 589.246, 177.639 595.039 M 2084.414 632.010 L 2081.500 632.521 2081.448 742.868 C 2081.405 833.437, 2081.632 853.305, 2082.717 853.722 C 2084.692 854.479, 2122.729 854.603, 2123.479 853.854 C 2124.108 853.226, 2124.440 633.103, 2123.814 632.484 C 2123.244 631.920, 2087.389 631.489, 2084.414 632.010 M 2409 743 C 2409 831.098, 2409.258 854.014, 2410.250 854.066 C 2414.762 854.306, 2450.513 853.801, 2451.015 853.491 C 2451.356 853.280, 2451.750 828.486, 2451.891 798.393 L 2452.146 743.679 2454.452 740.285 C 2463.414 727.097, 2488.790 725.020, 2497.996 736.722 C 2503.600 743.845, 2503.449 742.247, 2503.994 800 L 2504.500 853.500 2525.250 853.770 L 2546 854.041 2546.139 839.270 C 2546.215 831.147, 2546.260 806.050, 2546.237 783.500 C 2546.199 745.370, 2546.051 741.917, 2544.114 734.176 C 2538.847 713.123, 2528.125 701.312, 2509.869 696.453 C 2502.916 694.602, 2485.661 694.593, 2478.585 696.436 C 2470.678 698.495, 2467.121 700.397, 2459.660 706.551 C 2456.026 709.548, 2452.704 712, 2452.277 711.999 C 2451.849 711.999, 2451.500 694.561, 2451.500 673.249 C 2451.500 651.937, 2451.339 633.938, 2451.143 633.250 C 2450.872 632.301, 2445.750 632, 2429.893 632 L 2409 632 2409 743 M 1325.500 634.011 C 1320.537 634.754, 1317.451 636.345, 1313.172 640.370 C 1308.773 644.507, 1307 648.997, 1307 656 C 1307 662.726, 1308.744 667.472, 1312.654 671.382 C 1317.799 676.527, 1320.688 677.480, 1331.160 677.491 C 1340.290 677.499, 1341.054 677.335, 1345.071 674.500 C 1350.726 670.509, 1353.364 665.177, 1353.841 656.778 C 1354.169 650.991, 1353.873 649.460, 1351.709 645.778 C 1346.444 636.817, 1336.521 632.362, 1325.500 634.011 M 2171.422 635.418 C 2154.999 642.570, 2153.224 665.731, 2168.430 674.464 C 2173.553 677.406, 2182.178 679.238, 2186.889 678.384 C 2195.944 676.743, 2203.014 670.280, 2205.053 661.779 C 2207.690 650.789, 2202.740 640.576, 2192.500 635.879 C 2187.690 633.673, 2176.017 633.418, 2171.422 635.418 M 414 639.252 C 411.525 640.991, 408.990 642.883, 408.366 643.457 C 407.743 644.031, 404.279 647.313, 400.668 650.750 C 397.057 654.188, 393.292 656.993, 392.302 656.984 C 391.311 656.976, 386.225 656.061, 381 654.953 C 375.775 653.844, 368.125 652.256, 364 651.423 C 356.498 649.910, 342.293 646.834, 334.202 644.971 C 330.170 644.043, 329.658 644.180, 325.917 647.187 C 323.723 648.950, 322.057 651.006, 322.214 651.756 C 322.474 652.994, 334.324 659.504, 361.303 673.226 C 366.920 676.083, 370.976 678.748, 370.803 679.466 C 370.636 680.156, 365.690 685.765, 359.811 691.930 C 349.585 702.654, 348.979 703.113, 345.811 702.537 C 343.990 702.206, 339.056 701.663, 334.846 701.331 C 328.003 700.791, 326.863 700.961, 324.096 702.932 C 318.878 706.647, 319.890 707.988, 332.733 714.381 C 339.187 717.593, 345.143 721.184, 345.969 722.361 C 347.963 725.201, 352.375 734.577, 353.919 739.254 C 355.312 743.475, 355.999 743.705, 360.059 741.306 C 363.740 739.132, 364.388 736.004, 363.530 724.557 L 362.842 715.381 374.453 704.941 C 380.839 699.198, 386.612 694.381, 387.282 694.235 C 387.952 694.090, 391.611 699.265, 395.414 705.735 C 408.948 728.762, 414.308 737.181, 415.797 737.753 C 416.736 738.113, 418.535 736.993, 420.549 734.795 C 423.530 731.542, 423.719 730.946, 422.897 727.379 C 421.135 719.732, 411.895 681.427, 410.957 677.884 C 410.431 675.895, 410.013 673.645, 410.029 672.884 C 410.045 672.123, 413.238 668.125, 417.125 664 C 426.382 654.175, 430 648.562, 430 644.027 C 430 635.473, 422.543 633.248, 414 639.252 M 1115.998 642.833 C 1115.342 643.052, 1115 679.352, 1115 748.583 L 1115 854 1155.750 853.999 C 1188.285 853.999, 1197.964 853.693, 1203.761 852.483 C 1222.280 848.620, 1235.307 841.723, 1248.848 828.614 C 1261.851 816.024, 1267.551 806.846, 1272.830 790 C 1277.296 775.744, 1278.490 767.210, 1278.495 749.500 C 1278.500 731.829, 1277.310 723.288, 1272.874 709.163 C 1264.848 683.609, 1250.207 665.404, 1228 653.364 C 1212.571 644.999, 1207.242 643.959, 1177 643.415 C 1134.460 642.650, 1117.045 642.484, 1115.998 642.833 M 1919.387 643.500 C 1917.371 645.039, 1917.001 852.764, 1919.012 854.007 C 1919.778 854.481, 1929.250 854.908, 1940.061 854.957 C 1955.621 855.027, 1959.956 854.758, 1960.861 853.668 C 1961.681 852.680, 1961.985 840.643, 1961.935 811.159 C 1961.896 788.536, 1962.147 769.571, 1962.492 769.014 C 1962.899 768.355, 1977.636 768, 2004.559 768 L 2046 768 2046 750 L 2046 732 2004.559 732 C 1976.348 732, 1962.908 731.660, 1962.460 730.936 C 1962.099 730.351, 1961.595 718.456, 1961.340 704.504 C 1960.882 679.415, 1960.901 679.124, 1963.007 677.996 C 1964.545 677.173, 1977.735 676.975, 2010.517 677.282 C 2049.296 677.645, 2055.979 677.498, 2056.449 676.271 C 2056.752 675.482, 2057 667.884, 2057 659.387 C 2057 647.939, 2056.676 643.818, 2055.750 643.477 C 2053.061 642.488, 1920.684 642.510, 1919.387 643.500 M 609.785 720.731 L 609.500 798.500 607.270 804 C 604.187 811.606, 599.930 816.398, 593.434 819.576 C 588.416 822.031, 587.177 822.229, 579.953 821.734 C 565.785 820.763, 558.590 813.882, 555.879 798.712 C 555.200 794.911, 554.162 791.638, 553.572 791.440 C 552.982 791.241, 543.394 790.864, 532.265 790.602 C 515.040 790.195, 511.906 790.346, 511.196 791.614 C 510.124 793.531, 512.463 808.718, 515.018 816.415 C 520.267 832.236, 535.166 846.975, 551.500 852.509 C 568.975 858.429, 594.521 858.897, 609.218 853.566 C 632.169 845.242, 644.582 831.473, 651.201 807 L 653.500 798.500 653.500 721 L 653.500 643.500 631.785 643.231 L 610.070 642.961 609.785 720.731 M 1019 676.421 C 1019 689.026, 1018.627 696.112, 1017.942 696.536 C 1017.360 696.895, 1012.523 697.215, 1007.192 697.246 C 1001.861 697.277, 996.938 697.740, 996.250 698.274 C 994.532 699.609, 994.487 725.087, 996.200 726.800 C 996.954 727.554, 1000.764 728.006, 1006.450 728.015 C 1011.428 728.024, 1016.080 728.399, 1016.790 728.849 C 1017.802 729.491, 1018.172 739.645, 1018.507 776.084 C 1018.787 806.517, 1019.337 824.222, 1020.104 827.500 C 1023.417 841.663, 1031.615 850.259, 1046.500 855.178 C 1052.225 857.070, 1081.090 856.776, 1086.500 854.771 L 1090.500 853.289 1090.412 845.894 C 1090.364 841.827, 1090.252 834.757, 1090.162 830.181 L 1090 821.863 1082.124 822.550 C 1072.808 823.362, 1068.576 822.254, 1064.415 817.913 L 1061.500 814.871 1061 772.686 C 1060.725 749.484, 1060.656 729.950, 1060.846 729.278 C 1061.093 728.409, 1065.144 727.975, 1074.846 727.778 L 1088.500 727.500 1088.500 712.500 L 1088.500 697.500 1075 697 L 1061.500 696.500 1061 677 L 1060.500 657.500 1039.750 657.230 L 1019 656.959 1019 676.421 M 1823.603 658.202 C 1822.220 658.976, 1822 661.701, 1822 678.017 L 1822 696.934 1810.750 697.217 L 1799.500 697.500 1799.500 712.500 L 1799.500 727.500 1810.500 728 L 1821.500 728.500 1822.015 776.500 C 1822.582 829.256, 1822.421 827.830, 1829.156 839.720 C 1835.173 850.344, 1845.681 855.747, 1863.731 857.500 C 1869.103 858.022, 1886.734 855.812, 1891.422 854.030 L 1894.051 853.030 1893.775 837.265 L 1893.500 821.500 1891 821.821 C 1889.625 821.997, 1884.797 822.222, 1880.272 822.321 C 1872.283 822.495, 1871.952 822.409, 1868.909 819.368 C 1866.973 817.433, 1865.495 814.707, 1865.043 812.236 C 1864.641 810.036, 1864.354 790.295, 1864.406 768.368 L 1864.500 728.500 1878 728 L 1891.500 727.500 1891.500 712.500 L 1891.500 697.500 1878.835 697.500 C 1871.869 697.500, 1865.866 697.197, 1865.495 696.827 C 1865.124 696.457, 1864.670 687.807, 1864.486 677.604 C 1864.302 667.401, 1863.879 658.613, 1863.545 658.074 C 1862.780 656.835, 1825.833 656.955, 1823.603 658.202 M 2586.771 676.730 L 2586.500 696.500 2576.556 696.789 C 2571.087 696.947, 2566.024 697.565, 2565.306 698.161 C 2563.491 699.667, 2563.441 725.313, 2565.250 726.745 C 2565.938 727.289, 2570.100 727.821, 2574.500 727.926 C 2578.900 728.031, 2583.512 728.365, 2584.750 728.667 L 2587 729.217 2587.024 775.358 C 2587.039 803.520, 2587.452 823.251, 2588.084 825.994 C 2589.492 832.104, 2594.491 841.782, 2598.336 845.839 C 2602.181 849.897, 2609.005 853.497, 2616.733 855.545 C 2629.434 858.910, 2657.913 856.392, 2659.479 851.765 C 2659.715 851.069, 2659.591 844.200, 2659.204 836.500 L 2658.500 822.500 2648.498 822.839 C 2639.350 823.149, 2638.251 822.985, 2635.627 820.921 C 2630.221 816.669, 2630.119 815.775, 2629.997 771.413 C 2629.936 748.911, 2629.911 729.950, 2629.943 729.278 C 2629.984 728.392, 2633.777 727.980, 2643.750 727.778 L 2657.500 727.500 2657.500 712.500 L 2657.500 697.500 2643.771 697.222 L 2630.042 696.944 2629.771 677.222 L 2629.500 657.500 2608.271 657.230 L 2587.042 656.960 2586.771 676.730 M 423.128 669.750 C 417.900 676.812, 417.689 674.472, 427.087 713.641 C 429.882 725.288, 431.005 739, 429.164 739 C 428.704 739, 426.314 740.569, 423.852 742.487 C 421.390 744.406, 418 746.250, 416.319 746.586 C 413.194 747.211, 412.955 747.060, 409.117 742.036 C 407.237 739.575, 407.204 739.571, 389.422 739.622 C 373.289 739.668, 371.509 739.844, 370.554 741.491 C 368.360 745.274, 364.009 749.680, 360.716 751.453 C 355.748 754.129, 352.783 752.993, 349.097 747.003 C 347.404 744.251, 345.673 742, 345.251 742 C 344.441 742, 328 758.638, 328 759.456 C 328 759.718, 332.837 760.060, 338.750 760.216 L 349.500 760.500 349.199 771.500 C 348.747 788.012, 341.901 829.243, 339.114 832.236 C 338.566 832.824, 274.371 833.630, 267.750 833.132 C 266.207 833.016, 265.998 831.789, 265.985 822.750 C 265.967 811.182, 265.180 808.687, 262.311 811.107 C 261.315 811.948, 257.238 814.569, 253.250 816.932 C 248.574 819.704, 245.956 821.899, 245.875 823.115 C 245.806 824.152, 245.637 825.900, 245.500 827 C 245.363 828.100, 245.194 829.900, 245.125 831 C 245.011 832.821, 244.292 833, 237.069 833 C 229.720 833, 228.602 833.291, 221.819 836.974 C 217.794 839.160, 209.427 843.461, 203.227 846.532 C 197.026 849.603, 192.215 852.539, 192.536 853.058 C 192.875 853.607, 203.690 854, 218.500 854 C 232.915 854, 244.128 854.398, 244.452 854.922 C 245.405 856.465, 245.104 919.296, 244.139 920.261 C 242.261 922.139, 226.184 915.031, 217.420 908.447 C 205.893 899.786, 193.438 883.291, 186.501 867.500 C 184.327 862.550, 182.118 858.198, 181.594 857.830 C 180.632 857.154, 176.116 858.608, 168.179 862.149 C 164.139 863.952, 163.901 864.275, 164.526 867.119 C 165.832 873.065, 176.991 893.223, 184.265 902.775 C 186.475 905.677, 188.050 908.283, 187.766 908.568 C 186.972 909.362, 166.485 898.496, 157.439 892.483 C 153.005 889.536, 146.188 884.171, 142.290 880.562 C 138.392 876.953, 134.542 874, 133.734 874 C 132.927 874, 130.069 874.881, 127.383 875.959 C 124.698 877.036, 120.588 878.403, 118.250 878.997 C 115.912 879.591, 114 880.488, 114 880.990 C 114 882.844, 127.945 895.962, 137.078 902.699 C 167.986 925.501, 194.056 936.454, 229.500 941.531 C 241.223 943.210, 264.706 943.417, 277.500 941.955 C 330.806 935.860, 377.757 909.089, 411.505 865.546 C 415.748 860.072, 419.471 854.897, 419.778 854.046 C 420.085 853.196, 421.552 850.700, 423.038 848.500 C 431.586 835.844, 442.478 807.054, 446.100 787.543 C 450.204 765.437, 449.758 733.039, 445.034 710.113 C 440.873 689.916, 431.624 664, 428.578 664 C 427.922 664, 425.469 666.587, 423.128 669.750 M 98.208 676.054 C 90.523 692.209, 83.643 717.888, 82.817 733.500 L 82.500 739.500 111.727 739.765 L 140.954 740.030 141.407 737.765 C 141.656 736.519, 142.323 728.975, 142.889 721 C 143.922 706.447, 146.652 688.519, 149.483 677.701 C 150.317 674.512, 151 670.799, 151 669.451 L 151 667 126.750 667.016 L 102.500 667.031 98.208 676.054 M 171.170 673.750 C 169.501 679.630, 168.582 683.667, 166.328 695 C 164.633 703.528, 162.877 718.122, 162.329 728.250 L 161.693 740 202.787 740 C 234.569 740, 244.064 739.717, 244.683 738.750 C 245.558 737.386, 245.310 669.311, 244.426 667.879 C 244.127 667.396, 227.953 667, 208.483 667 L 173.085 667 171.170 673.750 M 343.383 679.437 C 344.127 686.699, 345.439 691, 346.909 691 C 348.385 691, 357.071 681.712, 356.683 680.548 C 356.272 679.315, 351.949 676.712, 346.601 674.478 L 342.709 672.851 343.383 679.437 M 1158.790 679.130 C 1158.538 679.884, 1158.521 711.550, 1158.751 749.500 L 1159.170 818.500 1173.335 818.804 C 1181.186 818.973, 1190.175 818.601, 1193.500 817.969 C 1212.476 814.365, 1225.387 800.570, 1231.157 777.734 C 1233.961 766.636, 1234.278 736.460, 1231.712 725 C 1227.696 707.069, 1224.146 699.337, 1216.144 691.094 C 1206.184 680.833, 1200.528 678.988, 1176.873 678.284 C 1162.493 677.857, 1159.162 678.013, 1158.790 679.130 M 1457 695.022 C 1453.425 695.308, 1448.752 696.401, 1446.614 697.450 C 1442.004 699.712, 1432.019 708.727, 1430.052 712.403 C 1429.287 713.832, 1428.353 715, 1427.975 715 C 1427.597 715, 1426.982 711.331, 1426.608 706.846 C 1426.234 702.361, 1425.692 698.311, 1425.405 697.846 C 1424.689 696.688, 1387.263 696.765, 1386.545 697.926 C 1385.963 698.869, 1385.676 853.009, 1386.256 853.589 C 1386.550 853.884, 1408.306 854.156, 1422.846 854.047 L 1429.192 854 1428.988 804.250 C 1428.876 776.888, 1428.833 753.595, 1428.892 752.489 C 1429.043 749.668, 1434.663 743.696, 1440 740.686 C 1447.189 736.631, 1455.137 735.436, 1465.388 736.870 C 1470.156 737.537, 1474.494 737.813, 1475.028 737.482 C 1475.604 737.127, 1476 728.828, 1476 717.110 C 1476 697.602, 1475.970 697.323, 1473.750 696.226 C 1470.831 694.783, 1465.104 694.371, 1457 695.022 M 894.296 697.033 C 876.874 701.535, 863.101 712.049, 856.773 725.675 C 853.853 731.963, 853.603 733.326, 853.591 743 C 853.579 752.816, 853.787 753.927, 856.797 760.049 C 864.136 774.983, 877.430 782.935, 907.500 790.378 C 931.693 796.367, 936.643 798.693, 940.065 805.683 C 941.804 809.235, 941.953 810.462, 941.048 813.823 C 939.692 818.859, 934.978 823.479, 929.178 825.455 C 923.944 827.239, 911.796 827.486, 905.693 825.933 C 896.744 823.657, 889.977 816.508, 888.596 807.874 L 887.976 804 867.988 804 L 848 804 848 806.951 C 848 815.166, 853.727 829.137, 860.031 836.297 C 864.406 841.268, 875.407 848.853, 882 851.444 C 905.408 860.645, 937.096 859.478, 957.461 848.665 C 979.643 836.888, 989.105 811.873, 979.080 791.511 C 971.169 775.442, 958.101 768.065, 922.226 759.417 C 907.368 755.836, 899.967 752.840, 896.500 749.003 C 894.982 747.323, 894.500 745.386, 894.500 740.961 C 894.500 735.852, 894.871 734.741, 897.500 731.974 C 903.943 725.193, 912.458 722.917, 923.550 725.009 C 933.304 726.850, 936.019 729.592, 941.069 742.708 C 941.899 744.865, 942.365 744.923, 961.209 745.208 C 976.099 745.433, 980.762 745.203, 981.649 744.197 C 983.197 742.441, 980.871 732.368, 977.221 725.026 C 972.245 715.014, 958.437 703.328, 946.880 699.347 C 933.055 694.584, 908.035 693.483, 894.296 697.033 M 1543.500 696.505 C 1518.098 703.028, 1500.567 719.091, 1492.209 743.500 C 1488.469 754.423, 1485.571 773.575, 1486.499 781.232 C 1489.496 805.941, 1492.822 815.587, 1503.035 829.179 C 1509.257 837.460, 1515.474 842.731, 1525.076 847.865 C 1534.317 852.805, 1540.859 854.825, 1553 856.488 C 1581.978 860.456, 1606.302 852.732, 1624.871 833.666 L 1629.242 829.178 1622.871 822.339 C 1619.367 818.578, 1615.353 814.150, 1613.951 812.500 C 1612.549 810.850, 1610.429 808.659, 1609.240 807.631 C 1607.094 805.775, 1607.036 805.800, 1601.137 811.131 C 1589.583 821.573, 1577.813 825.275, 1562.880 823.163 C 1553.611 821.853, 1546.758 818.574, 1541.100 812.745 C 1536.367 807.869, 1531.872 799.047, 1531.234 793.381 L 1530.740 789 1580.870 789 C 1620.242 789, 1631.026 788.732, 1631.122 787.750 C 1631.188 787.063, 1631.165 780.650, 1631.070 773.500 C 1630.704 745.950, 1624.542 727.810, 1610.766 713.731 C 1600.967 703.716, 1594.178 699.896, 1580 696.420 C 1573.046 694.715, 1550.266 694.768, 1543.500 696.505 M 1705 696.100 C 1692.343 699.424, 1684.238 703.128, 1676.234 709.244 C 1670.506 713.621, 1663.182 722.734, 1659.410 730.178 C 1650.648 747.469, 1647.088 772.453, 1650.429 793.213 C 1653.595 812.887, 1661.400 828.696, 1673.846 840.641 C 1678.446 845.056, 1693.442 853.132, 1699.500 854.457 C 1713.140 857.440, 1726.582 858.409, 1735.191 857.029 C 1744.910 855.472, 1748.033 854.471, 1757.500 849.886 C 1773.836 841.973, 1785.153 826.962, 1788.182 809.191 C 1789.250 802.921, 1789.219 801.751, 1787.964 800.956 C 1787.159 800.447, 1780.200 799.991, 1772.500 799.943 C 1764.800 799.895, 1756.513 799.776, 1754.084 799.678 L 1749.668 799.500 1748.084 805.075 C 1743.728 820.409, 1732.238 826.603, 1715.006 822.908 C 1702.830 820.297, 1695.536 809.278, 1693.009 789.678 C 1691.704 779.562, 1691.729 769.682, 1693.082 760.692 C 1696.379 738.776, 1705.732 728.556, 1722.492 728.556 C 1728.532 728.556, 1730.344 729.001, 1735.001 731.632 C 1741.658 735.393, 1746.131 741.541, 1747.872 749.320 L 1749.143 755 1757.322 755.182 C 1761.820 755.282, 1770.675 755.395, 1777 755.432 L 1788.500 755.500 1788.409 749.355 C 1788.167 732.887, 1778.090 715.413, 1763.336 705.874 C 1754.055 699.874, 1751.638 698.804, 1742 696.427 C 1735.719 694.879, 1710.499 694.655, 1705 696.100 M 2279.435 696.999 C 2260.354 701.935, 2245.397 716.450, 2237.702 737.500 C 2236.301 741.332, 2235.736 743.301, 2232.828 754.500 C 2231.057 761.316, 2231.078 789.637, 2232.859 797.500 C 2237.862 819.583, 2244.923 832.879, 2257.091 843.131 C 2268.606 852.833, 2279.340 856.462, 2296.500 856.453 C 2306.634 856.448, 2309.510 856.078, 2314.994 854.072 C 2321.612 851.651, 2332 845.412, 2332 843.858 C 2332 843.386, 2332.493 843, 2333.097 843 C 2333.838 843, 2334.079 845.992, 2333.840 852.250 C 2333.544 859.998, 2333.019 862.439, 2330.610 867.282 C 2329.012 870.495, 2325.721 874.836, 2323.204 877.052 C 2316.774 882.711, 2310.549 884.301, 2296.635 883.837 C 2286.677 883.505, 2284.813 883.139, 2279 880.372 C 2275.425 878.670, 2269.630 874.965, 2266.123 872.139 C 2262.615 869.313, 2259.431 867, 2259.047 867 C 2257.128 867, 2241 889.264, 2241 891.914 C 2241 896.184, 2259.421 908.328, 2272 912.350 C 2286.766 917.072, 2305.976 918.321, 2321.582 915.575 C 2343.197 911.771, 2361.506 898.527, 2370.217 880.395 C 2376.974 866.328, 2377.070 864.791, 2376.767 775.813 L 2376.500 697.500 2358.971 697.228 C 2346 697.026, 2340.991 697.286, 2339.704 698.228 C 2338.620 699.021, 2337.730 701.478, 2337.343 704.750 C 2337.001 707.638, 2336.293 710, 2335.770 710 C 2335.246 710, 2333.014 708.456, 2330.809 706.568 C 2325.737 702.227, 2317.504 698.180, 2310.185 696.430 C 2302.234 694.530, 2287.961 694.793, 2279.435 696.999 M 2722 696.100 C 2703.974 700.835, 2693.353 707.729, 2685.141 720.026 C 2679.682 728.201, 2677.661 735.538, 2678.260 745 C 2678.965 756.139, 2681.995 763.042, 2689.407 770.394 C 2699.133 780.042, 2707.990 783.856, 2742 793.042 C 2753.212 796.070, 2760.421 799.272, 2763.494 802.589 C 2765.575 804.834, 2766 806.284, 2766 811.146 C 2766 816.596, 2765.737 817.263, 2762.180 820.820 C 2754.756 828.244, 2736.347 829.789, 2724.897 823.947 C 2718.442 820.654, 2713 812.104, 2713 805.255 C 2713 803.290, 2712.541 803.254, 2693.750 803.746 C 2683.162 804.022, 2674.304 804.427, 2674.064 804.644 C 2673.060 805.553, 2674.234 814.383, 2676.126 820.145 C 2680.470 833.380, 2689.843 843.245, 2704.500 850.009 C 2716.627 855.605, 2721.949 856.501, 2743 856.490 C 2759.569 856.482, 2762.283 856.236, 2769 854.143 C 2785.706 848.936, 2797.830 839.383, 2804.085 826.500 C 2807.292 819.894, 2807.483 818.909, 2807.475 809 C 2807.467 799.138, 2807.265 798.093, 2804.157 791.808 C 2795.667 774.643, 2778.959 765.615, 2742.500 758.493 C 2733.483 756.731, 2725.514 753.242, 2721.623 749.350 C 2719.463 747.190, 2719 745.807, 2719 741.512 C 2719 728.736, 2732.447 721.460, 2749.510 725.002 C 2756.971 726.551, 2762.243 731.317, 2763.926 738.036 C 2765.203 743.134, 2766.173 745.188, 2767.250 745.077 C 2767.662 745.035, 2776.775 745, 2787.500 745 L 2807 745 2807 741.657 C 2807 739.818, 2806.155 735.859, 2805.123 732.858 C 2798.211 712.768, 2784.483 701.423, 2761 696.392 C 2753.666 694.821, 2727.612 694.626, 2722 696.100 M 687.687 697.647 C 687.309 698.024, 687.016 723.571, 687.036 754.417 C 687.072 811.419, 687.145 812.767, 690.859 824.768 C 694.453 836.380, 703.317 846.968, 713.247 851.512 C 723.181 856.057, 730.397 857.313, 743 856.688 C 758.068 855.940, 766.365 852.842, 779 843.245 L 783.500 839.826 783.803 846.163 C 783.969 849.648, 784.419 852.805, 784.803 853.178 C 785.376 853.735, 818.558 854.568, 822.750 854.131 C 823.738 854.027, 824 837.880, 824 777.082 C 824 734.777, 823.727 699.452, 823.393 698.582 C 822.868 697.213, 820.121 697, 803.015 697 C 786.871 697, 783.022 697.269, 782.029 698.465 C 781.100 699.585, 780.884 712.375, 781.114 752.715 C 781.448 811.193, 781.767 808.051, 774.835 814.699 C 770.152 819.190, 762.679 822.218, 754.908 822.774 C 743.979 823.556, 736.057 819.766, 731.741 811.692 C 729.517 807.531, 729.496 807.088, 729 752.500 L 728.500 697.500 708.437 697.230 C 697.402 697.081, 688.065 697.269, 687.687 697.647 M 1310.293 697.638 C 1309.365 698.022, 1309.071 716.196, 1309.023 776.089 L 1308.961 854.040 1330.092 853.770 L 1351.224 853.500 1351.362 775.500 L 1351.500 697.500 1331.500 697.318 C 1320.500 697.219, 1310.957 697.362, 1310.293 697.638 M 2161.667 697.667 C 2161.300 698.033, 2161 733.358, 2161 776.167 L 2161 854 2172.250 854.113 C 2178.438 854.175, 2187.550 854.316, 2192.500 854.425 C 2197.450 854.534, 2201.988 854.464, 2202.584 854.269 C 2203.779 853.877, 2204.609 701.750, 2203.432 698.684 C 2202.856 697.182, 2200.600 697, 2182.560 697 C 2171.435 697, 2162.033 697.300, 2161.667 697.667 M 319.805 727.750 C 317.851 729.263, 311.134 735.161, 304.876 740.858 C 283.805 760.043, 249.355 785.305, 220.500 802.731 C 195.508 817.824, 166.617 832.698, 151 838.511 C 145.230 840.659, 143.082 841.491, 140 842.771 C 133.976 845.273, 121.070 850.173, 119.843 850.424 C 119.104 850.575, 117.825 850.966, 117 851.294 C 114.471 852.300, 101.665 855.873, 98.766 856.382 C 97.263 856.646, 95.688 857.074, 95.266 857.333 C 94.533 857.784, 90.717 858.352, 77.500 859.974 C 69.358 860.974, 63.081 860.376, 56.720 857.997 C 49.711 855.374, 45.396 851.676, 42.169 845.524 C 39.808 841.022, 39.543 839.461, 39.622 830.500 C 39.721 819.211, 42.056 809.157, 47.120 798.211 C 54.022 783.294, 55.760 777, 52.978 777 C 51.735 777, 47.954 782.229, 42.549 791.426 C 31.113 810.881, 26.331 826.607, 27.161 842.028 C 27.593 850.041, 30.670 858.151, 35.151 863.087 C 40.130 868.571, 49.424 873.233, 58.500 874.799 C 67.117 876.286, 88.366 875.314, 96.500 873.061 C 98.150 872.604, 102.200 871.653, 105.500 870.947 C 108.800 870.242, 111.950 869.346, 112.500 868.958 C 113.050 868.569, 114.850 868.007, 116.500 867.708 C 118.150 867.409, 121.300 866.665, 123.500 866.053 C 125.700 865.442, 128.307 864.752, 129.293 864.520 C 131.452 864.012, 137.729 862.017, 140.500 860.959 C 141.600 860.539, 145.200 859.207, 148.500 858 C 155.573 855.412, 158.862 854.091, 161.236 852.883 C 162.191 852.397, 163.416 852, 163.957 852 C 165.530 852, 181.675 844.579, 202.009 834.510 C 214.980 828.087, 224.329 822.506, 241.663 810.840 C 247.253 807.078, 252.145 804, 252.534 804 C 253.512 804, 279.788 786.304, 283.568 783.100 C 285.255 781.670, 288.763 778.748, 291.364 776.608 C 293.965 774.467, 297.393 771.542, 298.982 770.108 C 300.571 768.673, 305.123 764.575, 309.096 761 C 321.442 749.893, 335.842 734.752, 335.330 733.418 C 334.692 731.755, 326.013 725, 324.514 725 C 323.877 725, 321.758 726.237, 319.805 727.750 M 1551.104 730.013 C 1545.653 731.974, 1543.475 733.452, 1539.340 738 C 1535.921 741.759, 1532.084 750.106, 1531.366 755.345 L 1530.728 760 1559.805 760 C 1575.797 760, 1589.099 759.648, 1589.365 759.219 C 1590.085 758.053, 1587.221 745.267, 1585.361 741.348 C 1580.186 730.442, 1564.417 725.225, 1551.104 730.013 M 2299.500 729.917 C 2287.797 733.155, 2280.265 741.466, 2275.863 756 C 2274.104 761.809, 2274.084 788.700, 2275.835 795 C 2277.690 801.675, 2283.058 811.775, 2286.723 815.484 C 2291.713 820.534, 2296.479 822.392, 2305.500 822.806 C 2314.984 823.241, 2322.494 820.904, 2327.868 815.847 C 2333.849 810.219, 2334 809.220, 2334 775.167 C 2334 744.808, 2333.961 744.219, 2331.786 741.385 C 2325.720 733.483, 2318.875 729.773, 2309.644 729.387 C 2305.715 729.222, 2301.150 729.461, 2299.500 729.917 M 370.250 760.662 C 369.413 761, 369 763.541, 369 768.360 C 369 777.288, 366.111 802.908, 364.022 812.500 C 363.543 814.700, 362.379 820.034, 361.434 824.354 C 360.102 830.448, 359.991 832.376, 360.939 832.962 C 362.532 833.947, 406.181 833.624, 407.813 832.616 C 409.295 831.700, 417.114 815.615, 419.536 808.500 C 424.110 795.058, 427.953 775.613, 427.983 765.750 L 428 760 399.750 760.079 C 384.212 760.122, 370.938 760.385, 370.250 760.662 M 266.667 854.667 C 265.655 855.678, 265.899 918.293, 266.921 919.906 C 268.905 923.040, 282.955 916.645, 295.792 906.764 C 301.506 902.367, 311.242 891.125, 317.673 881.500 C 322.232 874.678, 331 857.504, 331 855.398 C 331 854.230, 325.768 854, 299.167 854 C 281.658 854, 267.033 854.300, 266.667 854.667 M 352.014 856.250 C 342.581 878.766, 336.825 889.872, 329.089 900.479 C 326.290 904.317, 324 907.787, 324 908.190 C 324 908.593, 328.602 906.635, 334.226 903.839 C 353.069 894.472, 368.624 882.795, 383.931 866.524 C 389.118 861.011, 393.543 855.938, 393.764 855.250 C 394.077 854.277, 389.594 854, 373.562 854 C 353.140 854, 352.949 854.020, 352.014 856.250" stroke="none" fill="#1965a0" fill-rule="evenodd"/><path d="M 0 750 L 0 1500.001 1435.250 1499.750 L 2870.500 1499.500 2870.751 749.750 L 2871.001 0 1435.501 0 L 0 0 0 750 M 0.497 750.500 C 0.497 1163, 0.611 1331.600, 0.750 1125.168 C 0.889 918.735, 0.889 581.235, 0.750 375.168 C 0.611 169.100, 0.497 338, 0.497 750.500 M 232.504 557.556 C 213.411 559.905, 194.937 564.853, 180.590 571.462 C 176.690 573.259, 170.859 575.952, 167.630 577.448 C 145.613 587.651, 117.838 610.876, 100.188 633.843 C 79.482 660.787, 65.038 698.623, 62.334 733 C 60.108 761.308, 63.561 785.478, 74.154 815.732 C 78.824 829.071, 84.780 842.391, 87.598 845.800 L 89.500 848.100 109.709 841.521 C 120.823 837.903, 130.187 834.506, 130.518 833.971 C 130.894 833.362, 126.272 833, 118.110 833 L 105.102 833 102.713 829.750 C 94.956 819.194, 84.679 784.612, 83.769 766 L 83.500 760.500 111.934 760.234 C 127.573 760.088, 140.710 760.313, 141.127 760.734 C 141.545 761.155, 142.170 765.550, 142.516 770.500 C 143.890 790.153, 148.973 821.930, 151.183 824.682 C 151.887 825.559, 154.243 824.840, 160.316 821.892 C 169.474 817.447, 169.077 818.349, 167.087 806.500 C 163.898 787.510, 161.441 763.900, 162.394 761.415 C 162.864 760.191, 169.081 760.017, 204.223 760.239 L 245.500 760.500 245.785 764.500 C 246.204 770.375, 246.663 771.252, 248.735 770.135 C 253.675 767.472, 286.239 742.475, 286.833 740.890 C 287.017 740.400, 282.656 740, 277.142 740 C 270.267 740, 266.878 739.612, 266.355 738.765 C 265.548 737.459, 265.822 669.096, 266.640 667.773 C 266.903 667.348, 280.565 667, 297 667 C 314.622 667, 327.121 666.613, 327.464 666.058 C 327.785 665.539, 324.894 663.274, 321.040 661.023 C 313.302 656.504, 311.854 654.664, 312.240 649.834 L 312.500 646.574 289.791 646.495 C 277.301 646.451, 266.849 646.183, 266.565 645.898 C 265.809 645.142, 265.731 580.245, 266.484 579.025 C 267.848 576.819, 277.797 580.899, 288.500 588.052 C 301.178 596.526, 313.737 611.424, 322.039 627.839 L 326.004 635.679 334.752 636.970 C 339.563 637.681, 344.586 638.670, 345.913 639.168 C 347.447 639.744, 348.698 639.702, 349.349 639.051 C 351.548 636.852, 332.967 603.900, 323.650 593.473 C 318.594 587.815, 321.016 587.975, 332.637 594.069 C 355.102 605.849, 374.539 621.728, 390.069 640.990 L 393.637 645.417 400.819 639.509 C 404.768 636.260, 407.984 633.353, 407.965 633.051 C 407.766 629.972, 391.611 611.985, 379.497 601.355 C 359.775 584.049, 329.485 568.421, 303 561.886 C 280.469 556.327, 255.141 554.772, 232.504 557.556 M 238 579.597 C 223.971 584.277, 210.602 594.980, 198.774 611 C 188.799 624.510, 178.611 644.523, 180.967 645.979 C 182.280 646.791, 243.721 646.612, 244.539 645.794 C 245.022 645.311, 245.487 592.617, 245.108 581.250 C 244.986 577.580, 244.432 577.451, 238 579.597 M 177.639 595.039 C 163.565 602.225, 139.646 619.425, 132 627.858 C 131.175 628.768, 127.688 632.612, 124.250 636.401 C 114.415 647.241, 114.253 647.120, 138 646.693 C 149 646.495, 158.180 646.146, 158.400 645.917 C 158.621 645.688, 160.261 641.675, 162.046 637 C 166.551 625.203, 176.237 606.785, 182.094 598.878 C 189.134 589.374, 188.986 589.246, 177.639 595.039 M 2084.414 632.010 L 2081.500 632.521 2081.448 742.868 C 2081.405 833.437, 2081.632 853.305, 2082.717 853.722 C 2084.692 854.479, 2122.729 854.603, 2123.479 853.854 C 2124.108 853.226, 2124.440 633.103, 2123.814 632.484 C 2123.244 631.920, 2087.389 631.489, 2084.414 632.010 M 2409 743 C 2409 831.098, 2409.258 854.014, 2410.250 854.066 C 2414.762 854.306, 2450.513 853.801, 2451.015 853.491 C 2451.356 853.280, 2451.750 828.486, 2451.891 798.393 L 2452.146 743.679 2454.452 740.285 C 2463.414 727.097, 2488.790 725.020, 2497.996 736.722 C 2503.600 743.845, 2503.449 742.247, 2503.994 800 L 2504.500 853.500 2525.250 853.770 L 2546 854.041 2546.139 839.270 C 2546.215 831.147, 2546.260 806.050, 2546.237 783.500 C 2546.199 745.370, 2546.051 741.917, 2544.114 734.176 C 2538.847 713.123, 2528.125 701.312, 2509.869 696.453 C 2502.916 694.602, 2485.661 694.593, 2478.585 696.436 C 2470.678 698.495, 2467.121 700.397, 2459.660 706.551 C 2456.026 709.548, 2452.704 712, 2452.277 711.999 C 2451.849 711.999, 2451.500 694.561, 2451.500 673.249 C 2451.500 651.937, 2451.339 633.938, 2451.143 633.250 C 2450.872 632.301, 2445.750 632, 2429.893 632 L 2409 632 2409 743 M 1325.500 634.011 C 1320.537 634.754, 1317.451 636.345, 1313.172 640.370 C 1308.773 644.507, 1307 648.997, 1307 656 C 1307 662.726, 1308.744 667.472, 1312.654 671.382 C 1317.799 676.527, 1320.688 677.480, 1331.160 677.491 C 1340.290 677.499, 1341.054 677.335, 1345.071 674.500 C 1350.726 670.509, 1353.364 665.177, 1353.841 656.778 C 1354.169 650.991, 1353.873 649.460, 1351.709 645.778 C 1346.444 636.817, 1336.521 632.362, 1325.500 634.011 M 2171.422 635.418 C 2154.999 642.570, 2153.224 665.731, 2168.430 674.464 C 2173.553 677.406, 2182.178 679.238, 2186.889 678.384 C 2195.944 676.743, 2203.014 670.280, 2205.053 661.779 C 2207.690 650.789, 2202.740 640.576, 2192.500 635.879 C 2187.690 633.673, 2176.017 633.418, 2171.422 635.418 M 414 639.252 C 411.525 640.991, 408.990 642.883, 408.366 643.457 C 407.743 644.031, 404.279 647.313, 400.668 650.750 C 397.057 654.188, 393.292 656.993, 392.302 656.984 C 391.311 656.976, 386.225 656.061, 381 654.953 C 375.775 653.844, 368.125 652.256, 364 651.423 C 356.498 649.910, 342.293 646.834, 334.202 644.971 C 330.170 644.043, 329.658 644.180, 325.917 647.187 C 323.723 648.950, 322.057 651.006, 322.214 651.756 C 322.474 652.994, 334.324 659.504, 361.303 673.226 C 366.920 676.083, 370.976 678.748, 370.803 679.466 C 370.636 680.156, 365.690 685.765, 359.811 691.930 C 349.585 702.654, 348.979 703.113, 345.811 702.537 C 343.990 702.206, 339.056 701.663, 334.846 701.331 C 328.003 700.791, 326.863 700.961, 324.096 702.932 C 318.878 706.647, 319.890 707.988, 332.733 714.381 C 339.187 717.593, 345.143 721.184, 345.969 722.361 C 347.963 725.201, 352.375 734.577, 353.919 739.254 C 355.312 743.475, 355.999 743.705, 360.059 741.306 C 363.740 739.132, 364.388 736.004, 363.530 724.557 L 362.842 715.381 374.453 704.941 C 380.839 699.198, 386.612 694.381, 387.282 694.235 C 387.952 694.090, 391.611 699.265, 395.414 705.735 C 408.948 728.762, 414.308 737.181, 415.797 737.753 C 416.736 738.113, 418.535 736.993, 420.549 734.795 C 423.530 731.542, 423.719 730.946, 422.897 727.379 C 421.135 719.732, 411.895 681.427, 410.957 677.884 C 410.431 675.895, 410.013 673.645, 410.029 672.884 C 410.045 672.123, 413.238 668.125, 417.125 664 C 426.382 654.175, 430 648.562, 430 644.027 C 430 635.473, 422.543 633.248, 414 639.252 M 1115.998 642.833 C 1115.342 643.052, 1115 679.352, 1115 748.583 L 1115 854 1155.750 853.999 C 1188.285 853.999, 1197.964 853.693, 1203.761 852.483 C 1222.280 848.620, 1235.307 841.723, 1248.848 828.614 C 1261.851 816.024, 1267.551 806.846, 1272.830 790 C 1277.296 775.744, 1278.490 767.210, 1278.495 749.500 C 1278.500 731.829, 1277.310 723.288, 1272.874 709.163 C 1264.848 683.609, 1250.207 665.404, 1228 653.364 C 1212.571 644.999, 1207.242 643.959, 1177 643.415 C 1134.460 642.650, 1117.045 642.484, 1115.998 642.833 M 1919.387 643.500 C 1917.371 645.039, 1917.001 852.764, 1919.012 854.007 C 1919.778 854.481, 1929.250 854.908, 1940.061 854.957 C 1955.621 855.027, 1959.956 854.758, 1960.861 853.668 C 1961.681 852.680, 1961.985 840.643, 1961.935 811.159 C 1961.896 788.536, 1962.147 769.571, 1962.492 769.014 C 1962.899 768.355, 1977.636 768, 2004.559 768 L 2046 768 2046 750 L 2046 732 2004.559 732 C 1976.348 732, 1962.908 731.660, 1962.460 730.936 C 1962.099 730.351, 1961.595 718.456, 1961.340 704.504 C 1960.882 679.415, 1960.901 679.124, 1963.007 677.996 C 1964.545 677.173, 1977.735 676.975, 2010.517 677.282 C 2049.296 677.645, 2055.979 677.498, 2056.449 676.271 C 2056.752 675.482, 2057 667.884, 2057 659.387 C 2057 647.939, 2056.676 643.818, 2055.750 643.477 C 2053.061 642.488, 1920.684 642.510, 1919.387 643.500 M 609.785 720.731 L 609.500 798.500 607.270 804 C 604.187 811.606, 599.930 816.398, 593.434 819.576 C 588.416 822.031, 587.177 822.229, 579.953 821.734 C 565.785 820.763, 558.590 813.882, 555.879 798.712 C 555.200 794.911, 554.162 791.638, 553.572 791.440 C 552.982 791.241, 543.394 790.864, 532.265 790.602 C 515.040 790.195, 511.906 790.346, 511.196 791.614 C 510.124 793.531, 512.463 808.718, 515.018 816.415 C 520.267 832.236, 535.166 846.975, 551.500 852.509 C 568.975 858.429, 594.521 858.897, 609.218 853.566 C 632.169 845.242, 644.582 831.473, 651.201 807 L 653.500 798.500 653.500 721 L 653.500 643.500 631.785 643.231 L 610.070 642.961 609.785 720.731 M 1019 676.421 C 1019 689.026, 1018.627 696.112, 1017.942 696.536 C 1017.360 696.895, 1012.523 697.215, 1007.192 697.246 C 1001.861 697.277, 996.938 697.740, 996.250 698.274 C 994.532 699.609, 994.487 725.087, 996.200 726.800 C 996.954 727.554, 1000.764 728.006, 1006.450 728.015 C 1011.428 728.024, 1016.080 728.399, 1016.790 728.849 C 1017.802 729.491, 1018.172 739.645, 1018.507 776.084 C 1018.787 806.517, 1019.337 824.222, 1020.104 827.500 C 1023.417 841.663, 1031.615 850.259, 1046.500 855.178 C 1052.225 857.070, 1081.090 856.776, 1086.500 854.771 L 1090.500 853.289 1090.412 845.894 C 1090.364 841.827, 1090.252 834.757, 1090.162 830.181 L 1090 821.863 1082.124 822.550 C 1072.808 823.362, 1068.576 822.254, 1064.415 817.913 L 1061.500 814.871 1061 772.686 C 1060.725 749.484, 1060.656 729.950, 1060.846 729.278 C 1061.093 728.409, 1065.144 727.975, 1074.846 727.778 L 1088.500 727.500 1088.500 712.500 L 1088.500 697.500 1075 697 L 1061.500 696.500 1061 677 L 1060.500 657.500 1039.750 657.230 L 1019 656.959 1019 676.421 M 1823.603 658.202 C 1822.220 658.976, 1822 661.701, 1822 678.017 L 1822 696.934 1810.750 697.217 L 1799.500 697.500 1799.500 712.500 L 1799.500 727.500 1810.500 728 L 1821.500 728.500 1822.015 776.500 C 1822.582 829.256, 1822.421 827.830, 1829.156 839.720 C 1835.173 850.344, 1845.681 855.747, 1863.731 857.500 C 1869.103 858.022, 1886.734 855.812, 1891.422 854.030 L 1894.051 853.030 1893.775 837.265 L 1893.500 821.500 1891 821.821 C 1889.625 821.997, 1884.797 822.222, 1880.272 822.321 C 1872.283 822.495, 1871.952 822.409, 1868.909 819.368 C 1866.973 817.433, 1865.495 814.707, 1865.043 812.236 C 1864.641 810.036, 1864.354 790.295, 1864.406 768.368 L 1864.500 728.500 1878 728 L 1891.500 727.500 1891.500 712.500 L 1891.500 697.500 1878.835 697.500 C 1871.869 697.500, 1865.866 697.197, 1865.495 696.827 C 1865.124 696.457, 1864.670 687.807, 1864.486 677.604 C 1864.302 667.401, 1863.879 658.613, 1863.545 658.074 C 1862.780 656.835, 1825.833 656.955, 1823.603 658.202 M 2586.771 676.730 L 2586.500 696.500 2576.556 696.789 C 2571.087 696.947, 2566.024 697.565, 2565.306 698.161 C 2563.491 699.667, 2563.441 725.313, 2565.250 726.745 C 2565.938 727.289, 2570.100 727.821, 2574.500 727.926 C 2578.900 728.031, 2583.512 728.365, 2584.750 728.667 L 2587 729.217 2587.024 775.358 C 2587.039 803.520, 2587.452 823.251, 2588.084 825.994 C 2589.492 832.104, 2594.491 841.782, 2598.336 845.839 C 2602.181 849.897, 2609.005 853.497, 2616.733 855.545 C 2629.434 858.910, 2657.913 856.392, 2659.479 851.765 C 2659.715 851.069, 2659.591 844.200, 2659.204 836.500 L 2658.500 822.500 2648.498 822.839 C 2639.350 823.149, 2638.251 822.985, 2635.627 820.921 C 2630.221 816.669, 2630.119 815.775, 2629.997 771.413 C 2629.936 748.911, 2629.911 729.950, 2629.943 729.278 C 2629.984 728.392, 2633.777 727.980, 2643.750 727.778 L 2657.500 727.500 2657.500 712.500 L 2657.500 697.500 2643.771 697.222 L 2630.042 696.944 2629.771 677.222 L 2629.500 657.500 2608.271 657.230 L 2587.042 656.960 2586.771 676.730 M 423.128 669.750 C 417.900 676.812, 417.689 674.472, 427.087 713.641 C 429.882 725.288, 431.005 739, 429.164 739 C 428.704 739, 426.314 740.569, 423.852 742.487 C 421.390 744.406, 418 746.250, 416.319 746.586 C 413.194 747.211, 412.955 747.060, 409.117 742.036 C 407.237 739.575, 407.204 739.571, 389.422 739.622 C 373.289 739.668, 371.509 739.844, 370.554 741.491 C 368.360 745.274, 364.009 749.680, 360.716 751.453 C 355.748 754.129, 352.783 752.993, 349.097 747.003 C 347.404 744.251, 345.673 742, 345.251 742 C 344.441 742, 328 758.638, 328 759.456 C 328 759.718, 332.837 760.060, 338.750 760.216 L 349.500 760.500 349.199 771.500 C 348.747 788.012, 341.901 829.243, 339.114 832.236 C 338.566 832.824, 274.371 833.630, 267.750 833.132 C 266.207 833.016, 265.998 831.789, 265.985 822.750 C 265.967 811.182, 265.180 808.687, 262.311 811.107 C 261.315 811.948, 257.238 814.569, 253.250 816.932 C 248.574 819.704, 245.956 821.899, 245.875 823.115 C 245.806 824.152, 245.637 825.900, 245.500 827 C 245.363 828.100, 245.194 829.900, 245.125 831 C 245.011 832.821, 244.292 833, 237.069 833 C 229.720 833, 228.602 833.291, 221.819 836.974 C 217.794 839.160, 209.427 843.461, 203.227 846.532 C 197.026 849.603, 192.215 852.539, 192.536 853.058 C 192.875 853.607, 203.690 854, 218.500 854 C 232.915 854, 244.128 854.398, 244.452 854.922 C 245.405 856.465, 245.104 919.296, 244.139 920.261 C 242.261 922.139, 226.184 915.031, 217.420 908.447 C 205.893 899.786, 193.438 883.291, 186.501 867.500 C 184.327 862.550, 182.118 858.198, 181.594 857.830 C 180.632 857.154, 176.116 858.608, 168.179 862.149 C 164.139 863.952, 163.901 864.275, 164.526 867.119 C 165.832 873.065, 176.991 893.223, 184.265 902.775 C 186.475 905.677, 188.050 908.283, 187.766 908.568 C 186.972 909.362, 166.485 898.496, 157.439 892.483 C 153.005 889.536, 146.188 884.171, 142.290 880.562 C 138.392 876.953, 134.542 874, 133.734 874 C 132.927 874, 130.069 874.881, 127.383 875.959 C 124.698 877.036, 120.588 878.403, 118.250 878.997 C 115.912 879.591, 114 880.488, 114 880.990 C 114 882.844, 127.945 895.962, 137.078 902.699 C 167.986 925.501, 194.056 936.454, 229.500 941.531 C 241.223 943.210, 264.706 943.417, 277.500 941.955 C 330.806 935.860, 377.757 909.089, 411.505 865.546 C 415.748 860.072, 419.471 854.897, 419.778 854.046 C 420.085 853.196, 421.552 850.700, 423.038 848.500 C 431.586 835.844, 442.478 807.054, 446.100 787.543 C 450.204 765.437, 449.758 733.039, 445.034 710.113 C 440.873 689.916, 431.624 664, 428.578 664 C 427.922 664, 425.469 666.587, 423.128 669.750 M 98.208 676.054 C 90.523 692.209, 83.643 717.888, 82.817 733.500 L 82.500 739.500 111.727 739.765 L 140.954 740.030 141.407 737.765 C 141.656 736.519, 142.323 728.975, 142.889 721 C 143.922 706.447, 146.652 688.519, 149.483 677.701 C 150.317 674.512, 151 670.799, 151 669.451 L 151 667 126.750 667.016 L 102.500 667.031 98.208 676.054 M 171.170 673.750 C 169.501 679.630, 168.582 683.667, 166.328 695 C 164.633 703.528, 162.877 718.122, 162.329 728.250 L 161.693 740 202.787 740 C 234.569 740, 244.064 739.717, 244.683 738.750 C 245.558 737.386, 245.310 669.311, 244.426 667.879 C 244.127 667.396, 227.953 667, 208.483 667 L 173.085 667 171.170 673.750 M 343.383 679.437 C 344.127 686.699, 345.439 691, 346.909 691 C 348.385 691, 357.071 681.712, 356.683 680.548 C 356.272 679.315, 351.949 676.712, 346.601 674.478 L 342.709 672.851 343.383 679.437 M 1158.790 679.130 C 1158.538 679.884, 1158.521 711.550, 1158.751 749.500 L 1159.170 818.500 1173.335 818.804 C 1181.186 818.973, 1190.175 818.601, 1193.500 817.969 C 1212.476 814.365, 1225.387 800.570, 1231.157 777.734 C 1233.961 766.636, 1234.278 736.460, 1231.712 725 C 1227.696 707.069, 1224.146 699.337, 1216.144 691.094 C 1206.184 680.833, 1200.528 678.988, 1176.873 678.284 C 1162.493 677.857, 1159.162 678.013, 1158.790 679.130 M 1457 695.022 C 1453.425 695.308, 1448.752 696.401, 1446.614 697.450 C 1442.004 699.712, 1432.019 708.727, 1430.052 712.403 C 1429.287 713.832, 1428.353 715, 1427.975 715 C 1427.597 715, 1426.982 711.331, 1426.608 706.846 C 1426.234 702.361, 1425.692 698.311, 1425.405 697.846 C 1424.689 696.688, 1387.263 696.765, 1386.545 697.926 C 1385.963 698.869, 1385.676 853.009, 1386.256 853.589 C 1386.550 853.884, 1408.306 854.156, 1422.846 854.047 L 1429.192 854 1428.988 804.250 C 1428.876 776.888, 1428.833 753.595, 1428.892 752.489 C 1429.043 749.668, 1434.663 743.696, 1440 740.686 C 1447.189 736.631, 1455.137 735.436, 1465.388 736.870 C 1470.156 737.537, 1474.494 737.813, 1475.028 737.482 C 1475.604 737.127, 1476 728.828, 1476 717.110 C 1476 697.602, 1475.970 697.323, 1473.750 696.226 C 1470.831 694.783, 1465.104 694.371, 1457 695.022 M 894.296 697.033 C 876.874 701.535, 863.101 712.049, 856.773 725.675 C 853.853 731.963, 853.603 733.326, 853.591 743 C 853.579 752.816, 853.787 753.927, 856.797 760.049 C 864.136 774.983, 877.430 782.935, 907.500 790.378 C 931.693 796.367, 936.643 798.693, 940.065 805.683 C 941.804 809.235, 941.953 810.462, 941.048 813.823 C 939.692 818.859, 934.978 823.479, 929.178 825.455 C 923.944 827.239, 911.796 827.486, 905.693 825.933 C 896.744 823.657, 889.977 816.508, 888.596 807.874 L 887.976 804 867.988 804 L 848 804 848 806.951 C 848 815.166, 853.727 829.137, 860.031 836.297 C 864.406 841.268, 875.407 848.853, 882 851.444 C 905.408 860.645, 937.096 859.478, 957.461 848.665 C 979.643 836.888, 989.105 811.873, 979.080 791.511 C 971.169 775.442, 958.101 768.065, 922.226 759.417 C 907.368 755.836, 899.967 752.840, 896.500 749.003 C 894.982 747.323, 894.500 745.386, 894.500 740.961 C 894.500 735.852, 894.871 734.741, 897.500 731.974 C 903.943 725.193, 912.458 722.917, 923.550 725.009 C 933.304 726.850, 936.019 729.592, 941.069 742.708 C 941.899 744.865, 942.365 744.923, 961.209 745.208 C 976.099 745.433, 980.762 745.203, 981.649 744.197 C 983.197 742.441, 980.871 732.368, 977.221 725.026 C 972.245 715.014, 958.437 703.328, 946.880 699.347 C 933.055 694.584, 908.035 693.483, 894.296 697.033 M 1543.500 696.505 C 1518.098 703.028, 1500.567 719.091, 1492.209 743.500 C 1488.469 754.423, 1485.571 773.575, 1486.499 781.232 C 1489.496 805.941, 1492.822 815.587, 1503.035 829.179 C 1509.257 837.460, 1515.474 842.731, 1525.076 847.865 C 1534.317 852.805, 1540.859 854.825, 1553 856.488 C 1581.978 860.456, 1606.302 852.732, 1624.871 833.666 L 1629.242 829.178 1622.871 822.339 C 1619.367 818.578, 1615.353 814.150, 1613.951 812.500 C 1612.549 810.850, 1610.429 808.659, 1609.240 807.631 C 1607.094 805.775, 1607.036 805.800, 1601.137 811.131 C 1589.583 821.573, 1577.813 825.275, 1562.880 823.163 C 1553.611 821.853, 1546.758 818.574, 1541.100 812.745 C 1536.367 807.869, 1531.872 799.047, 1531.234 793.381 L 1530.740 789 1580.870 789 C 1620.242 789, 1631.026 788.732, 1631.122 787.750 C 1631.188 787.063, 1631.165 780.650, 1631.070 773.500 C 1630.704 745.950, 1624.542 727.810, 1610.766 713.731 C 1600.967 703.716, 1594.178 699.896, 1580 696.420 C 1573.046 694.715, 1550.266 694.768, 1543.500 696.505 M 1705 696.100 C 1692.343 699.424, 1684.238 703.128, 1676.234 709.244 C 1670.506 713.621, 1663.182 722.734, 1659.410 730.178 C 1650.648 747.469, 1647.088 772.453, 1650.429 793.213 C 1653.595 812.887, 1661.400 828.696, 1673.846 840.641 C 1678.446 845.056, 1693.442 853.132, 1699.500 854.457 C 1713.140 857.440, 1726.582 858.409, 1735.191 857.029 C 1744.910 855.472, 1748.033 854.471, 1757.500 849.886 C 1773.836 841.973, 1785.153 826.962, 1788.182 809.191 C 1789.250 802.921, 1789.219 801.751, 1787.964 800.956 C 1787.159 800.447, 1780.200 799.991, 1772.500 799.943 C 1764.800 799.895, 1756.513 799.776, 1754.084 799.678 L 1749.668 799.500 1748.084 805.075 C 1743.728 820.409, 1732.238 826.603, 1715.006 822.908 C 1702.830 820.297, 1695.536 809.278, 1693.009 789.678 C 1691.704 779.562, 1691.729 769.682, 1693.082 760.692 C 1696.379 738.776, 1705.732 728.556, 1722.492 728.556 C 1728.532 728.556, 1730.344 729.001, 1735.001 731.632 C 1741.658 735.393, 1746.131 741.541, 1747.872 749.320 L 1749.143 755 1757.322 755.182 C 1761.820 755.282, 1770.675 755.395, 1777 755.432 L 1788.500 755.500 1788.409 749.355 C 1788.167 732.887, 1778.090 715.413, 1763.336 705.874 C 1754.055 699.874, 1751.638 698.804, 1742 696.427 C 1735.719 694.879, 1710.499 694.655, 1705 696.100 M 2279.435 696.999 C 2260.354 701.935, 2245.397 716.450, 2237.702 737.500 C 2236.301 741.332, 2235.736 743.301, 2232.828 754.500 C 2231.057 761.316, 2231.078 789.637, 2232.859 797.500 C 2237.862 819.583, 2244.923 832.879, 2257.091 843.131 C 2268.606 852.833, 2279.340 856.462, 2296.500 856.453 C 2306.634 856.448, 2309.510 856.078, 2314.994 854.072 C 2321.612 851.651, 2332 845.412, 2332 843.858 C 2332 843.386, 2332.493 843, 2333.097 843 C 2333.838 843, 2334.079 845.992, 2333.840 852.250 C 2333.544 859.998, 2333.019 862.439, 2330.610 867.282 C 2329.012 870.495, 2325.721 874.836, 2323.204 877.052 C 2316.774 882.711, 2310.549 884.301, 2296.635 883.837 C 2286.677 883.505, 2284.813 883.139, 2279 880.372 C 2275.425 878.670, 2269.630 874.965, 2266.123 872.139 C 2262.615 869.313, 2259.431 867, 2259.047 867 C 2257.128 867, 2241 889.264, 2241 891.914 C 2241 896.184, 2259.421 908.328, 2272 912.350 C 2286.766 917.072, 2305.976 918.321, 2321.582 915.575 C 2343.197 911.771, 2361.506 898.527, 2370.217 880.395 C 2376.974 866.328, 2377.070 864.791, 2376.767 775.813 L 2376.500 697.500 2358.971 697.228 C 2346 697.026, 2340.991 697.286, 2339.704 698.228 C 2338.620 699.021, 2337.730 701.478, 2337.343 704.750 C 2337.001 707.638, 2336.293 710, 2335.770 710 C 2335.246 710, 2333.014 708.456, 2330.809 706.568 C 2325.737 702.227, 2317.504 698.180, 2310.185 696.430 C 2302.234 694.530, 2287.961 694.793, 2279.435 696.999 M 2722 696.100 C 2703.974 700.835, 2693.353 707.729, 2685.141 720.026 C 2679.682 728.201, 2677.661 735.538, 2678.260 745 C 2678.965 756.139, 2681.995 763.042, 2689.407 770.394 C 2699.133 780.042, 2707.990 783.856, 2742 793.042 C 2753.212 796.070, 2760.421 799.272, 2763.494 802.589 C 2765.575 804.834, 2766 806.284, 2766 811.146 C 2766 816.596, 2765.737 817.263, 2762.180 820.820 C 2754.756 828.244, 2736.347 829.789, 2724.897 823.947 C 2718.442 820.654, 2713 812.104, 2713 805.255 C 2713 803.290, 2712.541 803.254, 2693.750 803.746 C 2683.162 804.022, 2674.304 804.427, 2674.064 804.644 C 2673.060 805.553, 2674.234 814.383, 2676.126 820.145 C 2680.470 833.380, 2689.843 843.245, 2704.500 850.009 C 2716.627 855.605, 2721.949 856.501, 2743 856.490 C 2759.569 856.482, 2762.283 856.236, 2769 854.143 C 2785.706 848.936, 2797.830 839.383, 2804.085 826.500 C 2807.292 819.894, 2807.483 818.909, 2807.475 809 C 2807.467 799.138, 2807.265 798.093, 2804.157 791.808 C 2795.667 774.643, 2778.959 765.615, 2742.500 758.493 C 2733.483 756.731, 2725.514 753.242, 2721.623 749.350 C 2719.463 747.190, 2719 745.807, 2719 741.512 C 2719 728.736, 2732.447 721.460, 2749.510 725.002 C 2756.971 726.551, 2762.243 731.317, 2763.926 738.036 C 2765.203 743.134, 2766.173 745.188, 2767.250 745.077 C 2767.662 745.035, 2776.775 745, 2787.500 745 L 2807 745 2807 741.657 C 2807 739.818, 2806.155 735.859, 2805.123 732.858 C 2798.211 712.768, 2784.483 701.423, 2761 696.392 C 2753.666 694.821, 2727.612 694.626, 2722 696.100 M 687.687 697.647 C 687.309 698.024, 687.016 723.571, 687.036 754.417 C 687.072 811.419, 687.145 812.767, 690.859 824.768 C 694.453 836.380, 703.317 846.968, 713.247 851.512 C 723.181 856.057, 730.397 857.313, 743 856.688 C 758.068 855.940, 766.365 852.842, 779 843.245 L 783.500 839.826 783.803 846.163 C 783.969 849.648, 784.419 852.805, 784.803 853.178 C 785.376 853.735, 818.558 854.568, 822.750 854.131 C 823.738 854.027, 824 837.880, 824 777.082 C 824 734.777, 823.727 699.452, 823.393 698.582 C 822.868 697.213, 820.121 697, 803.015 697 C 786.871 697, 783.022 697.269, 782.029 698.465 C 781.100 699.585, 780.884 712.375, 781.114 752.715 C 781.448 811.193, 781.767 808.051, 774.835 814.699 C 770.152 819.190, 762.679 822.218, 754.908 822.774 C 743.979 823.556, 736.057 819.766, 731.741 811.692 C 729.517 807.531, 729.496 807.088, 729 752.500 L 728.500 697.500 708.437 697.230 C 697.402 697.081, 688.065 697.269, 687.687 697.647 M 1310.293 697.638 C 1309.365 698.022, 1309.071 716.196, 1309.023 776.089 L 1308.961 854.040 1330.092 853.770 L 1351.224 853.500 1351.362 775.500 L 1351.500 697.500 1331.500 697.318 C 1320.500 697.219, 1310.957 697.362, 1310.293 697.638 M 2161.667 697.667 C 2161.300 698.033, 2161 733.358, 2161 776.167 L 2161 854 2172.250 854.113 C 2178.438 854.175, 2187.550 854.316, 2192.500 854.425 C 2197.450 854.534, 2201.988 854.464, 2202.584 854.269 C 2203.779 853.877, 2204.609 701.750, 2203.432 698.684 C 2202.856 697.182, 2200.600 697, 2182.560 697 C 2171.435 697, 2162.033 697.300, 2161.667 697.667 M 319.805 727.750 C 317.851 729.263, 311.134 735.161, 304.876 740.858 C 283.805 760.043, 249.355 785.305, 220.500 802.731 C 195.508 817.824, 166.617 832.698, 151 838.511 C 145.230 840.659, 143.082 841.491, 140 842.771 C 133.976 845.273, 121.070 850.173, 119.843 850.424 C 119.104 850.575, 117.825 850.966, 117 851.294 C 114.471 852.300, 101.665 855.873, 98.766 856.382 C 97.263 856.646, 95.688 857.074, 95.266 857.333 C 94.533 857.784, 90.717 858.352, 77.500 859.974 C 69.358 860.974, 63.081 860.376, 56.720 857.997 C 49.711 855.374, 45.396 851.676, 42.169 845.524 C 39.808 841.022, 39.543 839.461, 39.622 830.500 C 39.721 819.211, 42.056 809.157, 47.120 798.211 C 54.022 783.294, 55.760 777, 52.978 777 C 51.735 777, 47.954 782.229, 42.549 791.426 C 31.113 810.881, 26.331 826.607, 27.161 842.028 C 27.593 850.041, 30.670 858.151, 35.151 863.087 C 40.130 868.571, 49.424 873.233, 58.500 874.799 C 67.117 876.286, 88.366 875.314, 96.500 873.061 C 98.150 872.604, 102.200 871.653, 105.500 870.947 C 108.800 870.242, 111.950 869.346, 112.500 868.958 C 113.050 868.569, 114.850 868.007, 116.500 867.708 C 118.150 867.409, 121.300 866.665, 123.500 866.053 C 125.700 865.442, 128.307 864.752, 129.293 864.520 C 131.452 864.012, 137.729 862.017, 140.500 860.959 C 141.600 860.539, 145.200 859.207, 148.500 858 C 155.573 855.412, 158.862 854.091, 161.236 852.883 C 162.191 852.397, 163.416 852, 163.957 852 C 165.530 852, 181.675 844.579, 202.009 834.510 C 214.980 828.087, 224.329 822.506, 241.663 810.840 C 247.253 807.078, 252.145 804, 252.534 804 C 253.512 804, 279.788 786.304, 283.568 783.100 C 285.255 781.670, 288.763 778.748, 291.364 776.608 C 293.965 774.467, 297.393 771.542, 298.982 770.108 C 300.571 768.673, 305.123 764.575, 309.096 761 C 321.442 749.893, 335.842 734.752, 335.330 733.418 C 334.692 731.755, 326.013 725, 324.514 725 C 323.877 725, 321.758 726.237, 319.805 727.750 M 1551.104 730.013 C 1545.653 731.974, 1543.475 733.452, 1539.340 738 C 1535.921 741.759, 1532.084 750.106, 1531.366 755.345 L 1530.728 760 1559.805 760 C 1575.797 760, 1589.099 759.648, 1589.365 759.219 C 1590.085 758.053, 1587.221 745.267, 1585.361 741.348 C 1580.186 730.442, 1564.417 725.225, 1551.104 730.013 M 2299.500 729.917 C 2287.797 733.155, 2280.265 741.466, 2275.863 756 C 2274.104 761.809, 2274.084 788.700, 2275.835 795 C 2277.690 801.675, 2283.058 811.775, 2286.723 815.484 C 2291.713 820.534, 2296.479 822.392, 2305.500 822.806 C 2314.984 823.241, 2322.494 820.904, 2327.868 815.847 C 2333.849 810.219, 2334 809.220, 2334 775.167 C 2334 744.808, 2333.961 744.219, 2331.786 741.385 C 2325.720 733.483, 2318.875 729.773, 2309.644 729.387 C 2305.715 729.222, 2301.150 729.461, 2299.500 729.917 M 370.250 760.662 C 369.413 761, 369 763.541, 369 768.360 C 369 777.288, 366.111 802.908, 364.022 812.500 C 363.543 814.700, 362.379 820.034, 361.434 824.354 C 360.102 830.448, 359.991 832.376, 360.939 832.962 C 362.532 833.947, 406.181 833.624, 407.813 832.616 C 409.295 831.700, 417.114 815.615, 419.536 808.500 C 424.110 795.058, 427.953 775.613, 427.983 765.750 L 428 760 399.750 760.079 C 384.212 760.122, 370.938 760.385, 370.250 760.662 M 266.667 854.667 C 265.655 855.678, 265.899 918.293, 266.921 919.906 C 268.905 923.040, 282.955 916.645, 295.792 906.764 C 301.506 902.367, 311.242 891.125, 317.673 881.500 C 322.232 874.678, 331 857.504, 331 855.398 C 331 854.230, 325.768 854, 299.167 854 C 281.658 854, 267.033 854.300, 266.667 854.667 M 352.014 856.250 C 342.581 878.766, 336.825 889.872, 329.089 900.479 C 326.290 904.317, 324 907.787, 324 908.190 C 324 908.593, 328.602 906.635, 334.226 903.839 C 353.069 894.472, 368.624 882.795, 383.931 866.524 C 389.118 861.011, 393.543 855.938, 393.764 855.250 C 394.077 854.277, 389.594 854, 373.562 854 C 353.140 854, 352.949 854.020, 352.014 856.250" stroke="none" fill="#fbfbfb" fill-rule="evenodd"/></svg>